<svg width="31" height="31" viewBox="0 0 31 31" fill="none" xmlns="http://www.w3.org/2000/svg">
<path d="M15.5016 0.187256C7.04627 0.187256 0.19043 7.0431 0.19043 15.4984C0.19043 23.9537 7.04627 30.8096 15.5016 30.8096C23.9569 30.8096 30.8127 23.9537 30.8127 15.4984C30.8127 7.0431 23.9569 0.187256 15.5016 0.187256ZM22.8598 11.7287C22.8701 11.8894 22.8701 12.0568 22.8701 12.2209C22.8701 17.238 19.0491 23.0173 12.0668 23.0173C9.9137 23.0173 7.91778 22.3918 6.23628 21.3153C6.54387 21.3495 6.83779 21.3631 7.15222 21.3631C8.92941 21.3631 10.5631 20.7616 11.8652 19.7432C10.1974 19.709 8.79612 18.6153 8.31764 17.1115C8.90207 17.197 9.42839 17.197 10.0299 17.0432C9.17113 16.8687 8.39924 16.4023 7.84538 15.7232C7.29152 15.0441 6.98983 14.1943 6.99159 13.3179V13.2701C7.49399 13.5538 8.08524 13.7281 8.70384 13.752C8.18382 13.4054 7.75735 12.9359 7.46224 12.385C7.16714 11.8342 7.01252 11.219 7.0121 10.5941C7.0121 9.8866 7.19665 9.24066 7.52816 8.68016C8.48136 9.85357 9.6708 10.8133 11.0192 11.4969C12.3676 12.1805 13.8447 12.5727 15.3546 12.6481C14.818 10.0677 16.7456 7.97954 19.0628 7.97954C20.1564 7.97954 21.1407 8.43751 21.8345 9.17572C22.6924 9.01509 23.5126 8.69383 24.244 8.26321C23.9603 9.14155 23.3656 9.88318 22.5762 10.3514C23.3417 10.2694 24.0799 10.0575 24.7635 9.76014C24.2474 10.5189 23.6015 11.1921 22.8598 11.7287Z" fill="white"/>
</svg>
